<svg xmlns="http://www.w3.org/2000/svg" xmlns:xlink="http://www.w3.org/1999/xlink" version="1.1" enable-background="new 0 0 1000 1000" xml:space="preserve" width="1000" height="1000"><rect id="backgroundrect" width="100%" height="100%" x="0" y="0" fill="none" stroke="none"/>
<metadata> Svg Vector Icons : http://www.onlinewebfonts.com/icon </metadata>

<g class="currentLayer"><title>Layer 1</title><g id="svg_1" class="selected" fill="#ffffff" fill-opacity="1"><g transform="translate(0,511) scale(0.10000000149011612,-0.10000000149011612) " id="svg_2" fill="#ffffff" fill-opacity="1"><path d="M5183.2,4303.9C3480.3,4109.5,2274,3139.7,1737.6,1530.5c-126.5-384.1-217.8-826.9-236.6-1161.8L1487,111H786.6c-459.1,0-695.7-7-686.3-23.4c7-11.7,637.1-545.8,1398.4-1185.2C2787-2182.1,2885.4-2259.4,2932.2-2231.3c75,46.8,2876.4,2225.3,2942,2286.2l58.6,56.2H5202h-728.5l11.7,100.7c135.9,1262.5,712.1,2176.1,1651.4,2616.4c409.9,192.1,862,283.4,1410.1,283.4c505.9,2.4,967.4-75,1288.3-213.1c63.2-25.8,117.1-44.5,121.8-39.8c18.8,16.4-276.4,337.3-440.4,480.2c-569.2,496.6-1225,796.4-2033.2,929.9C6218.6,4313.2,5450.2,4334.3,5183.2,4303.9z" id="svg_3" fill="#ffffff" fill-opacity="1"/><path d="M7026.7,2324.6c-229.6-39.8-557.5-159.3-744.9-271.7c-178-105.4-477.9-391.2-595-566.8c-51.5-75-93.7-147.6-93.7-156.9c0-9.4,112.4-23.4,253-30.4c330.3-16.4,501.3-75,672.3-231.9C6670.6,928.5,6787.8,706,6858,429.6c44.5-178,46.8-262.4,46.8-2349.4c0-1187.6,7-2162,14-2162c7.1,0,320.9,166.3,695.7,372.5c377.1,203.8,705.1,381.8,733.2,395.8c42.2,21.1,152.3-30.4,796.4-379.5l747.2-405.2l7,2110.5c4.7,1773.2,0,2145.6-28.1,2333c-103,658.2-374.8,1189.9-777.6,1529.6c-196.8,168.7-557.5,349-829.2,416.9C8001.1,2357.4,7319.5,2373.8,7026.7,2324.6z" id="svg_4" fill="#ffffff" fill-opacity="1"/></g></g></g></svg>