<svg xmlns="http://www.w3.org/2000/svg" xmlns:xlink="http://www.w3.org/1999/xlink" version="1.1" preserveAspectRatio="xMinYMin meet" style="enable-background:new 0 0 473 473;" xml:space="preserve" viewBox="0 0 473 473" width="473px" height="473px"><rect id="backgroundrect" width="100%" height="100%" x="0" y="0" fill="none" stroke="none"/>
















<g class="currentLayer"><title>Layer 1</title><g id="svg_1" class="selected" fill="#ffffff" fill-opacity="1">
	<path d="M321.5409285686767,211.31847197542754 l5.5235645526939,-84.23265372221755 h20.420716594933815 V39.36377665404797 h-95.8938371187995 V2.3255813121795654 H141.22534799354594 v37.0381953418684 H45.33151087474643 v87.722041599162 h20.420716594933815 l19.493787022036,297.28025208604896 h137.01305677373117 c22.98122552027824,24.011472164392842 55.32921570464477,38.987574044072 91.11201116229405,38.987574044072 c69.56162960943324,0 126.154042713106,-56.592413103672705 126.154042713106,-126.154042713106 C439.52512514084736,270.3836719628455 387.3090672236217,215.54375031245382 321.5409285686767,211.31847197542754 zM170.46602852659993,31.566261845233562 h51.88466353785102 v7.7975148088144 h-51.88466353785102 V31.566261845233562 zM74.57219140780042,68.60445718710196 h243.67233777544996 v29.240680533053997 h-243.67233777544996 V68.60445718710196 zM112.63283587897463,395.12538980620496 L95.05626281055585,127.08581825320998 H297.7614324698461 l-5.623957555857386,85.75804255669188 c-59.48626578709395,10.125072979245498 -104.92043519935325,62.031179682820756 -104.92043519935325,124.35671554967426 c0,20.869073696440637 5.098599995613515,40.568520171559115 14.108628357198555,57.92578813597998 H112.63283587897463 zM313.37108242774144,434.11296385027697 c-53.438318363507285,0 -96.91336218005199,-43.47504381654469 -96.91336218005199,-96.91336218005199 s43.47504381654469,-96.91238749070088 96.91336218005199,-96.91238749070088 s96.91336218005199,43.47504381654469 96.91336218005199,96.91238749070088 S366.8094007912487,434.11296385027697 313.37108242774144,434.11296385027697 z" id="svg_2" fill="#ffffff" fill-opacity="1"/>
	<polygon points="345.4997662500773,284.3957735490811 313.3710647759817,316.52444634973915 281.24242064876125,284.3957735490811 260.56632023568454,305.07187396215784 292.69499303634257,337.2005754362534 260.56632023568454,369.32827334003457 281.24242064876125,390.0043450796737 313.3710647759817,357.87564360557815 345.4997662500773,390.0043450796737 366.17589533659157,369.32827334003457 334.04716518905843,337.2005754362534 366.17589533659157,305.07187396215784 " id="svg_3" fill="#ffffff" fill-opacity="1"/>
</g><g id="svg_4">
</g><g id="svg_5">
</g><g id="svg_6">
</g><g id="svg_7">
</g><g id="svg_8">
</g><g id="svg_9">
</g><g id="svg_10">
</g><g id="svg_11">
</g><g id="svg_12">
</g><g id="svg_13">
</g><g id="svg_14">
</g><g id="svg_15">
</g><g id="svg_16">
</g><g id="svg_17">
</g><g id="svg_18">
</g></g></svg>