<svg xmlns="http://www.w3.org/2000/svg" xmlns:xlink="http://www.w3.org/1999/xlink" version="1.1" width="512" height="512" enable-background="new 0 0 512 512" xml:space="preserve"><rect id="backgroundrect" width="100%" height="100%" x="0" y="0" fill="none" stroke="none"/>

<g class="currentLayer"><title>Layer 1</title><path d="M448,177.14V448c0,35.344-28.656,64-64,64H64c-35.344,0-64-28.656-64-64V128c0-35.344,28.656-64,64-64h270.844l-63.969,64  H64v320h320V241.156L448,177.14z M398.875,45.25L376.25,67.875l67.875,67.891l22.625-22.625L398.875,45.25z M444.125,0L421.5,22.625  l67.875,67.891L512,67.875L444.125,0z M150,294.187l67.875,67.875L421.5,158.406l-67.875-67.891L150,294.187z M128,384h64l-64-64  V384z" id="svg_1" class="selected" fill="#ffffff" fill-opacity="1"/></g></svg>